<svg width="809" height="100" viewBox="0 0 809 100" fill="none" xmlns="http://www.w3.org/2000/svg">
<path d="M516.839 87.3922H521.348C528.73 87.3922 532.808 83.8256 532.808 76.1004C532.808 69.1038 528.043 64.9837 521.863 64.9837H516.839V87.3922ZM512.547 61.2034H521.39C530.275 61.2034 537.359 66.7004 537.359 75.9322C537.359 85.9768 531.263 91.169 521.39 91.169H512.547V61.2034Z" fill="#181817"/>
<path d="M544.012 61.2048H560.797V64.9816H548.304V73.7404H559.68V77.5172H548.304V87.3936H560.797V91.1704H544.012V61.2048Z" fill="#181817"/>
<path d="M579.599 61.2048H583.895V91.1704H579.599V61.2048Z" fill="#181817"/>
<path d="M591.489 61.2048H597.329L610.548 85.3336H610.636V61.2048H614.927V91.1704H609.434L595.868 66.5302H595.784V91.1704H591.489V61.2048Z" fill="#181817"/>
<path d="M645.277 66.5284C643.171 65.155 640.898 64.4683 637.033 64.4683C630.124 64.4683 625.531 69.4924 625.531 76.1876C625.531 83.2296 630.597 87.9068 636.819 87.9068C639.783 87.9068 640.554 87.609 641.626 87.3918V78.2897H635.316V74.7722H645.922V90.3558C644.289 90.9129 641.458 91.6871 636.777 91.6871C627.29 91.6871 620.98 85.5875 620.98 76.0615C620.98 66.8297 627.679 60.6915 636.819 60.6915C641.199 60.6915 643.129 61.3362 645.62 62.1945L645.277 66.5284Z" fill="#181817"/>
<path d="M653.733 61.2048H670.518V64.9816H658.024V73.7404H669.4V77.5172H658.024V87.3936H670.518V91.1704H653.733V61.2048Z" fill="#181817"/>
<path d="M677.342 61.2048H683.183L696.401 85.3336H696.489V61.2048H700.781V91.1704H695.287L681.722 66.5302H681.638V91.1704H677.342V61.2048Z" fill="#181817"/>
<path d="M708.375 61.2048H712.67V91.1704H708.375V61.2048Z" fill="#181817"/>
<path d="M720.525 61.2048H737.311V64.9816H724.817V73.7404H736.193V77.5172H724.817V87.3936H737.311V91.1704H720.525V61.2048Z" fill="#181817"/>
<path d="M748.213 74.083H751.864C755.942 74.083 758.345 72.2787 758.345 69.4059C758.345 66.7011 756.285 64.9809 752.333 64.9809H748.213V74.083ZM743.921 61.2041H751.261C757.185 61.2041 762.893 62.1501 762.893 69.3218C762.893 72.9689 760.188 75.544 756.712 76.1466V76.2307C758.044 76.7457 758.688 77.3869 759.631 79.2367L765.296 91.1697H760.405L755.812 80.7818C754.481 77.8598 753.065 77.8598 750.788 77.8598H748.213V91.1697H743.921V61.2041Z" fill="#181817"/>
<path d="M770.404 61.2048H774.7V91.1704H770.404V61.2048ZM773.54 52.8349H778.217L772.594 59.0151H769.721L773.54 52.8349Z" fill="#181817"/>
<path d="M793.931 65.2419L787.965 80.0933H799.898L793.931 65.2419ZM791.826 61.2058H796.335L809 91.1679H804.319L801.271 83.6143H786.592L783.543 91.1679H779.034L791.826 61.2058Z" fill="#181817"/>
<path d="M512.472 12.6345H528.059V16.3307H516.672V24.9038H527.558V28.6035H516.672V41.9624H512.472V12.6345Z" fill="#181817"/>
<path d="M543.535 16.583L537.694 31.1191H549.375L543.535 16.583ZM541.474 12.6345H545.885L558.281 41.9624H553.702L550.72 34.5665H536.349L533.367 41.9624H528.953L541.474 12.6345Z" fill="#181817"/>
<path d="M582.795 17.4655C580.945 16.3724 578.889 15.8259 576.745 15.8259C569.979 15.8259 565.484 20.7028 565.484 27.2999C565.484 34.1878 570.442 38.7704 576.534 38.7704C578.637 38.7704 581.45 38.2239 582.921 37.341L583.174 41.4156C580.945 42.344 578.216 42.4666 576.492 42.4666C567.208 42.4666 561.031 36.5001 561.031 27.1738C561.031 18.1382 567.587 12.1297 576.534 12.1297C578.805 12.1297 581.033 12.466 583.132 13.3909L582.795 17.4655Z" fill="#181817"/>
<path d="M611.046 29.8203C611.046 38.0571 606.887 42.4645 599.659 42.4645C592.432 42.4645 588.273 38.0571 588.273 29.8203V12.6356H592.474V29.2738C592.474 34.9039 594.239 38.7718 599.659 38.7718C605.079 38.7718 606.845 34.9039 606.845 29.2738V12.6356H611.046V29.8203Z" fill="#181817"/>
<path d="M618.542 12.6345H622.743V38.2627H635.012V41.9624H618.542V12.6345Z" fill="#181817"/>
<path d="M643.133 16.3297H634.013V12.6335H656.454V16.3297H647.337V41.9614H643.133V16.3297Z" fill="#181817"/>
<path d="M669.743 16.583L663.903 31.1191H675.584L669.743 16.583ZM667.683 12.6345H672.094L684.49 41.9624H679.911L676.929 34.5665H662.558L659.576 41.9624H655.162L667.683 12.6345Z" fill="#181817"/>
<path d="M692.701 38.2642H697.112C704.34 38.2642 708.33 34.7782 708.33 27.2141C708.33 20.3647 703.667 16.3286 697.616 16.3286H692.701V38.2642ZM688.5 12.6359H697.154C705.853 12.6359 712.786 18.0138 712.786 27.0459C712.786 36.8768 706.82 41.9639 697.154 41.9639H688.5V12.6359Z" fill="#181817"/>
<path d="M414.604 81.8994L414.433 81.5981C414.538 81.7943 414.604 81.8994 414.604 81.8994ZM431.348 9.65338C431.348 9.65338 419.965 9.12085 410.863 23.4853L404.907 33.8977C404.907 33.8977 396.242 47.9924 401.049 58.4959L414.433 81.5981C413.627 80.1231 410.491 73.4034 413.571 62.7842C413.571 62.7842 416.545 49.9193 432.567 25.752C438.67 16.5623 448.673 9.65339 453.921 9.5658L431.348 9.65338Z" fill="#231F20"/>
<path d="M414.604 81.8994L414.433 81.5981C414.538 81.7943 414.604 81.8994 414.604 81.8994ZM431.348 9.65338C431.348 9.65338 419.965 9.12085 410.863 23.4853L404.907 33.8977C404.907 33.8977 396.242 47.9924 401.049 58.4959L414.433 81.5981C413.627 80.1231 410.491 73.4034 413.571 62.7842C413.571 62.7842 416.545 49.9193 432.567 25.752C438.67 16.5623 448.673 9.65339 453.921 9.5658L431.348 9.65338Z" fill="#231F20"/>
<path d="M451.184 17.2455C458.955 23.7305 469.606 34.5844 479.384 58.2997C485.568 73.3158 480.309 82.4284 480.309 82.4284C487.579 70.0225 494.954 58.3908 495.237 55.5144C496.113 46.3142 489.166 33.0008 483.326 24.0073C477.492 15.0103 471.725 11.738 469.788 11.1214C468.583 10.8306 467.392 10.701 466.235 10.701C457.915 10.701 451.184 17.2455 451.184 17.2455Z" fill="#231F20"/>
<path d="M447.072 71.8149C426.237 71.8149 418.231 68.4375 418.231 68.4375C416.981 73.5631 418.452 79.4315 418.452 79.4315C421.78 91.9496 435.251 91.0667 435.251 91.0667C435.251 91.0667 451.998 91.0457 459.506 90.9791C467.007 90.9125 470.97 88.7894 475.079 82.928C479.196 77.0596 476.73 66.7348 476.73 66.7348C476.73 66.7348 465.028 71.8149 447.072 71.8149Z" fill="#231F20"/>
<path d="M40.8469 1.59734C18.4083 1.59734 0.152267 23.6693 0.152267 50.7973C0.152267 77.928 18.4083 100 40.8469 100C63.2869 100 81.5416 77.928 81.5416 50.7973C81.5416 23.6693 63.2869 1.59734 40.8469 1.59734Z" fill="white"/>
<path d="M30.8092 66.5856L30.8052 66.4082C31.4705 66.3549 32.4812 66.2789 32.6212 66.2802C32.8132 66.2802 33.5265 66.3162 33.6892 66.3296C34.4705 66.3842 35.4279 66.5176 36.4812 66.7429C38.5719 67.1882 38.0585 67.0256 40.2892 67.8909V68.0362L40.3159 81.6042C36.1332 79.9429 32.7199 79.4816 31.1079 79.7642L30.7572 66.9069C30.7239 66.9122 30.8119 66.6989 30.8119 66.6989L30.8092 66.5856ZM41.3825 68.0416V67.8869C42.2012 67.5776 43.3865 67.1376 44.8545 66.8042C45.6625 66.6202 46.5425 66.4682 47.4905 66.3989C47.5692 66.3936 48.5599 66.3536 48.9812 66.3602C49.0825 66.3616 49.8852 66.4042 50.5519 66.4709C50.5572 66.4709 50.5612 66.4722 50.5665 66.4722C50.5665 66.5949 50.5679 66.7229 50.5679 66.8482C50.5945 71.9869 50.6265 79.7642 50.6265 79.7642C45.9865 79.0402 41.7225 81.4469 41.3545 81.6042L41.3825 68.0416ZM41.1585 86.0522C54.1799 85.9442 63.3679 75.4482 67.2932 64.0576H14.8105C18.8612 75.5336 28.0225 86.0522 41.1585 86.0522Z" fill="#231F20"/>
<path d="M40.72 91.0297C22.5813 91.0297 7.82533 72.5497 7.82533 49.8351C7.82533 27.1204 22.5813 8.64307 40.72 8.64307C58.8587 8.64307 73.616 27.1204 73.616 49.8351C73.616 72.5497 58.8587 91.0297 40.72 91.0297ZM40.6933 0.556396C18.2547 0.556396 0 22.6271 0 49.7577C0 76.8884 18.2547 98.9591 40.6933 98.9591C63.1333 98.9591 81.3893 76.8884 81.3893 49.7577C81.3893 22.6271 63.1333 0.556396 40.6933 0.556396Z" fill="#231F20"/>
<path d="M37.1256 50.5544C36.7283 49.8437 36.2003 50.1357 36.2003 50.1357C36.2229 50.4317 34.6083 50.3837 34.6083 50.3837C34.6083 50.3837 34.5576 50.037 34.2163 49.761C33.8749 49.4944 33.4083 50.4557 33.2163 50.601C33.0216 50.7477 32.6016 50.7957 32.2589 51.6877C31.9189 52.573 32.3083 52.5517 32.3083 52.5517C32.1096 53.8584 32.6536 54.177 32.9229 54.2517C33.1963 54.3277 33.0429 53.7357 33.0429 53.7357C33.2163 53.6877 33.2856 53.389 33.2856 53.389C33.8456 53.217 33.9483 52.8957 33.9483 52.8957C33.9483 52.8957 34.3683 52.8957 34.8523 52.749C35.3416 52.5997 35.6336 52.0824 35.6336 52.0824C35.6336 52.0824 35.9283 51.8824 36.3443 51.6877C36.7629 51.4917 37.1003 51.589 37.1003 51.589C37.1003 51.589 37.3443 50.9464 37.1256 50.5544Z" fill="#231F20"/>
<path d="M68.5871 47.0257C68.5871 47.0257 67.1977 47.0724 66.1177 46.9231C65.0417 46.7764 54.7711 42.2631 53.9457 42.0151C53.1177 41.7737 52.7444 41.3497 51.6484 41.6977C50.5471 42.0444 45.0991 42.3657 44.8231 42.3657C44.5591 42.3657 43.6564 42.6337 43.2124 43.3751C42.6364 44.3391 40.2537 46.7484 39.9871 46.8284C39.7151 46.9031 38.9831 46.4084 38.8577 46.2097C38.7404 46.0151 38.3991 45.0271 38.0551 43.4937C37.7111 41.9657 37.1511 41.4977 36.8377 41.2257C36.5097 40.9577 31.9937 36.6884 31.3831 36.1431C30.7684 35.6071 30.1817 35.7044 30.1817 35.7044L27.0324 35.7177H24.4711L23.5084 35.7511C21.7537 35.7684 18.5791 35.7991 18.3537 35.7991C18.0311 35.7991 16.5444 35.4511 16.5444 35.4511C16.2231 35.4791 16.3737 35.7044 16.8791 36.2937C17.3991 36.8871 19.3271 37.0577 20.2364 36.9364C21.1391 36.8097 20.4257 37.1564 20.4257 37.1564C19.5271 37.5244 18.3537 37.1564 17.9364 37.1564C17.5217 37.1564 17.8884 37.4524 18.5711 37.9177C19.2537 38.3911 21.0871 38.3671 22.4111 38.2444C23.7271 38.1177 22.7271 38.3671 22.7271 38.3671C21.6297 38.7617 20.4777 38.7137 19.5017 38.6391C18.5257 38.5644 19.9404 39.6244 20.8671 39.7724C21.7964 39.9191 23.2164 39.0831 23.6044 39.3297C23.9977 39.5764 22.7057 39.7964 21.9191 39.9964C21.1391 40.1951 20.6257 40.3617 21.8497 40.8311C23.0671 41.3017 24.2177 40.5857 24.8804 40.5124C25.5351 40.4391 25.1004 40.7604 25.1004 40.7604C23.9244 41.1791 24.3924 40.7604 23.6351 41.1257C22.8724 41.4977 24.4657 41.7951 24.9271 41.7417C25.3964 41.6977 26.8604 41.3311 27.0297 41.2751C27.2044 41.2257 27.5431 41.0511 27.2044 41.4737C26.8604 41.8951 25.7377 42.0631 25.7377 42.0631C25.7377 42.0631 24.3297 42.5697 25.3964 42.8804C26.2204 43.1191 26.8817 42.9271 27.2044 42.7311C27.6471 42.4537 28.8164 41.9377 28.5537 42.1537C27.3191 43.1657 27.7377 43.3564 27.7377 43.3564C28.7897 44.0484 29.9391 42.8644 30.4071 42.7724C30.8751 42.6671 29.6031 43.6097 29.8417 44.0097C30.2684 44.7204 32.4097 43.9164 32.4097 43.9164C32.4097 43.9164 31.4217 44.3084 31.8631 44.9684C32.0524 45.2537 32.9671 45.2244 33.2591 44.9524C33.5577 44.6817 33.4324 45.0004 33.3871 45.2497C33.3377 45.4977 33.2231 45.9617 33.5564 46.2951C33.9617 46.7017 34.0951 46.4324 34.0951 46.1297C34.0951 45.8431 34.5111 45.2497 34.6297 45.2497C34.7537 45.2497 34.5351 45.8684 34.5351 46.4804C34.5351 47.0964 37.2977 47.9364 37.2977 48.0871C37.2977 48.2311 36.9511 48.4311 36.7337 48.5791C36.5097 48.7244 36.2484 48.7244 35.9537 48.8444C35.6604 48.9724 35.0977 49.4191 35.2937 49.7617C35.4871 50.1097 35.5871 49.7364 35.5871 49.7364C35.6337 49.1217 38.0311 48.4764 38.5084 50.3897C38.7951 51.5337 37.5937 52.0817 37.3204 52.1284C37.0524 52.1791 36.9271 52.3471 37.1004 52.3764C37.6857 52.4711 37.7857 52.5257 38.8364 52.6004C39.8844 52.6737 39.9137 52.1791 40.5244 52.1284C41.1337 52.0817 40.9871 51.8604 41.4071 51.8604C41.8177 51.8604 41.6471 52.1791 41.3537 52.6004C41.0617 53.0151 40.7217 53.3657 41.0391 53.5897C41.3537 53.8084 41.6724 53.2751 41.8417 53.1524C42.0164 53.0271 41.8897 53.8191 42.2111 54.0324C42.6177 54.3031 42.7257 53.4391 42.8231 53.0951C42.9204 52.7497 43.0911 52.9711 43.0911 52.9711C43.1137 54.0791 43.4071 54.2204 43.7471 54.2484C44.0924 54.2751 43.9444 53.4391 43.9444 53.1657C43.9444 52.8951 44.0177 52.6737 44.0977 52.9711C44.1617 53.2644 44.8817 54.3884 45.2711 54.4391C45.6631 54.4871 45.6111 54.0057 45.5097 53.7351C45.4124 53.4631 45.4617 53.2391 45.4617 53.2391C45.4617 53.2391 46.4791 54.3111 46.8084 54.2017C47.5444 53.9551 47.3911 53.9084 47.2937 53.3164C47.1991 52.7217 45.0444 49.6924 44.9217 49.4671C44.8004 49.2444 44.7524 49.0977 45.2431 49.2684C45.7297 49.4404 46.4084 49.1164 46.6044 48.7231C46.8044 48.3297 46.5871 47.9124 46.7337 47.9124C46.8817 47.9124 48.0324 48.7791 48.8337 49.3484C49.6404 49.9097 49.9177 50.1124 50.6991 49.9617C51.4804 49.8111 50.8417 49.5951 50.6711 49.1964C50.4991 48.8004 51.0324 49.1524 51.0324 49.1524C51.0324 49.1524 52.1604 49.7617 52.3791 49.8871C52.6017 50.0084 53.5791 50.0591 53.1844 49.5951C52.7964 49.1217 52.9177 48.9457 52.9177 48.6804C52.9177 48.4071 53.6404 49.3844 54.0804 49.7231C55.5564 50.8671 55.6057 49.7364 55.6057 49.7364C57.1711 51.9111 59.7604 52.8271 60.4484 52.8484C61.1271 52.8684 60.9977 52.3231 60.7471 52.2004C60.5071 52.0711 59.8111 51.9364 59.5671 51.5671C59.3191 51.1951 59.5164 51.2191 59.7897 51.3711C60.0551 51.5124 61.2124 52.1351 61.9377 52.1524C62.6711 52.1791 62.6991 51.6764 62.0364 51.2444C61.4951 50.8897 60.2511 49.8631 59.9071 49.5417C59.5671 49.2204 60.0551 49.1964 60.2017 49.3177C60.3497 49.4404 61.3177 50.0097 62.4031 50.8511C63.6351 51.8057 64.8617 51.0884 64.9844 50.8671C65.1697 50.5351 64.0804 50.2951 63.2351 49.6644C62.3004 48.9644 60.6457 48.1391 60.0551 47.6884C59.4684 47.2457 60.5444 47.6391 60.5444 47.6391C62.5271 48.7791 64.7951 49.5417 65.4804 49.6137C66.1671 49.6924 67.5151 49.5951 67.7084 48.9724C67.9044 48.3591 66.9751 48.7791 65.7511 48.4817C64.8351 48.2577 62.9857 47.6391 62.4297 47.2204C61.8644 46.8031 62.7457 47.0964 62.7457 47.0964C66.3124 48.6271 67.7591 48.1604 67.7591 48.1604C69.6897 47.5951 68.5871 47.0257 68.5871 47.0257Z" fill="#231F20"/>
<path d="M4.77013 48.2301C6.0568 48.2021 6.6528 49.0341 6.67946 50.2701C6.7048 51.5075 6.14346 52.3621 4.8568 52.3888L1.9408 52.4501L1.91413 51.1875L4.62213 51.1301C5.24213 51.1168 5.76346 50.9355 5.75013 50.2901C5.7368 49.6448 5.20746 49.4848 4.58746 49.4981L1.8808 49.5555L1.85413 48.2915L4.77013 48.2301Z" fill="white"/>
<path d="M1.89573 46.7432L2.0264 45.1419L5.3384 43.8085L5.33973 43.7952L2.15573 43.5539L2.24907 42.4059L6.9344 42.7899L6.80773 44.3499L3.47173 45.7365L3.4704 45.7499L6.67573 45.9712L6.5824 47.1259L1.89573 46.7432Z" fill="white"/>
<path d="M2.51226 40.8331L2.71226 39.5864L7.34293 40.3397L7.1416 41.5851L2.51226 40.8331Z" fill="white"/>
<path d="M2.88333 38.4033L3.19666 37.098L7.022 36.946L7.02466 36.9313L3.694 35.0353L3.99666 33.7753L8.178 36.4513L7.81266 37.9687L2.88333 38.4033Z" fill="white"/>
<path d="M4.36773 32.6429L5.46906 29.4896L6.3064 29.7816L5.62106 31.7429L6.53573 32.0629L7.1824 30.2109L8.02106 30.5043L7.37306 32.3549L8.37706 32.7056L9.0864 30.6736L9.92373 30.9669L8.7984 34.1909L4.36773 32.6429Z" fill="white"/>
<path d="M8.31627 27.7667L8.45627 27.464C8.62693 27.0947 8.83093 26.6213 8.34827 26.3973C7.95227 26.2133 7.6936 26.58 7.49093 27.0173L7.35227 27.32L8.31627 27.7667ZM6.01627 28.0933L6.9616 26.0467C7.31627 25.2827 7.9456 24.8187 8.6776 25.1573C9.2456 25.42 9.4976 25.8667 9.3696 26.4813L9.3816 26.4867C9.65093 26.1627 9.9856 26.288 10.6043 26.312L11.9576 26.4307L11.4043 27.6267L10.5216 27.5173C9.6816 27.4107 9.4296 27.4747 9.23227 27.9L9.1216 28.14L10.8069 28.92L10.2763 30.068L6.01627 28.0933Z" fill="white"/>
<path d="M11.3671 25.1287C11.6831 24.938 12.0311 24.6153 12.2977 24.166C12.5017 23.822 12.6257 23.4527 12.3017 23.262C11.5511 22.814 10.8831 25.0233 9.4164 24.15C8.44573 23.5713 8.74707 22.4553 9.23107 21.6393C9.46173 21.2473 9.7484 20.8967 10.0031 20.6767L10.7937 21.242C10.5004 21.446 10.2564 21.7273 10.0724 22.038C9.91107 22.3113 9.6644 22.7807 10.0164 22.99C10.6697 23.3793 11.3711 21.1913 12.8271 22.0567C13.8724 22.6793 13.6311 23.7353 13.0937 24.6407C12.8697 25.0207 12.5324 25.4593 12.2017 25.7527L11.3671 25.1287Z" fill="white"/>
<path d="M10.8535 19.2615L11.5841 18.2335L15.4175 20.9455L14.6868 21.9748L10.8535 19.2615Z" fill="white"/>
<path d="M16.2219 18.3981L16.5432 18.0301C17.1619 17.3195 17.1445 16.6035 16.4405 15.9901C15.7365 15.3768 15.0112 15.4715 14.4045 16.1661L14.0832 16.5355L16.2219 18.3981ZM12.5565 16.8741L13.6885 15.5768C14.7712 14.3368 15.9139 13.8035 17.2805 14.9968C18.6032 16.1488 18.2845 17.4448 17.2232 18.6595L16.0925 19.9568L12.5565 16.8741Z" fill="white"/>
<path d="M18.9719 11.6305L18.9612 11.6399L19.6905 13.4359L20.5945 12.6639L18.9719 11.6305ZM17.7519 11.3959L18.9305 10.3892L23.3745 12.7799L22.3199 13.6812L21.3999 13.1479L20.0452 14.3039L20.4132 15.3105L19.4372 16.1452L17.7519 11.3959Z" fill="white"/>
<path d="M24.5299 10.9627L24.9472 10.7107C25.7525 10.22 25.9552 9.53199 25.4712 8.73065C24.9885 7.93065 24.2672 7.80132 23.4792 8.27999L23.0619 8.53332L24.5299 10.9627ZM21.5032 8.39332L22.9752 7.49865C24.3845 6.64399 25.6352 6.48399 26.5739 8.03865C27.4819 9.54132 26.7845 10.68 25.4045 11.5187L23.9312 12.412L21.5032 8.39332Z" fill="white"/>
<path d="M29.4863 4.24653L31.0289 3.7932L33.4623 6.39853L33.4756 6.39453L32.5596 3.34386L33.6663 3.01853L34.9863 7.51986L33.4836 7.9612L30.9916 5.35186L30.9796 5.35586L31.9209 8.4212L30.8076 8.74786L29.4863 4.24653Z" fill="white"/>
<path d="M37.8287 3.40786L37.8153 3.40919L37.3793 5.29319L38.562 5.18252L37.8287 3.40786ZM36.9673 2.51586L38.5087 2.37186L40.766 6.87452L39.3873 7.00252L38.942 6.03852L37.1727 6.20386L36.8953 7.23586L35.618 7.35452L36.9673 2.51586Z" fill="white"/>
<path d="M45.3587 7.17227C44.9933 7.22827 44.5853 7.29361 43.944 7.23761C42.688 7.12827 41.2907 6.37094 41.4467 4.60427C41.5893 2.97761 42.8093 2.26827 44.3627 2.40427C44.8427 2.44561 45.3 2.59361 45.74 2.76694L45.5507 3.76827C45.164 3.51361 44.7813 3.37094 44.3493 3.33361C43.4573 3.25494 42.82 3.84827 42.744 4.71761C42.6627 5.63494 43.2693 6.24827 44.188 6.32827C44.6 6.36427 45.028 6.29361 45.384 6.18961L45.3587 7.17227Z" fill="white"/>
<path d="M47.2141 2.92359L48.4475 3.19559L47.4395 7.78226L46.2061 7.50892L47.2141 2.92359Z" fill="white"/>
<path d="M50.9107 7.96651C51.6307 8.23318 52.1693 7.65851 52.4387 6.93318C52.7213 6.16918 52.6733 5.41985 51.9547 5.15318C51.2347 4.88651 50.7093 5.42385 50.4267 6.18651C50.1573 6.91185 50.1907 7.69985 50.9107 7.96651ZM52.276 4.28251C53.7413 4.82651 54.1853 5.97318 53.6613 7.38518C53.1413 8.78518 52.04 9.37451 50.588 8.83585C49.136 8.29851 48.684 7.13451 49.204 5.73318C49.728 4.32118 50.812 3.73985 52.276 4.28251Z" fill="white"/>
<path d="M56.0227 5.93534L57.412 6.75L57.1747 10.31L57.1867 10.3167L58.788 7.55934L59.784 8.14334L57.3987 12.19L56.0453 11.3967L56.2453 7.79134L56.2347 7.78467L54.6387 10.5713L53.6373 9.98334L56.0227 5.93534Z" fill="white"/>
<path d="M62.3332 11.3545L62.3225 11.3465L60.6772 12.3652L61.5879 13.1265L62.3332 11.3545ZM62.3612 10.1145L63.5479 11.1065L61.9385 15.8852L60.8759 14.9972L61.2479 13.9999L59.8839 12.8599L58.9545 13.3905L57.9705 12.5679L62.3612 10.1145Z" fill="white"/>
<path d="M65.8469 13.2204L66.7056 14.1471L63.9363 16.7124L65.2669 18.1471L64.5856 18.7777L62.3963 16.4164L65.8469 13.2204Z" fill="white"/>
<path d="M67.9673 21.7823L68.2313 22.1943C68.7407 22.9876 69.4327 23.1729 70.218 22.6663C71.0047 22.1596 71.1153 21.4343 70.618 20.6569L70.354 20.2463L67.9673 21.7823ZM70.454 18.6796L71.3833 20.1316C72.2727 21.5209 72.466 22.7689 70.9393 23.7529C69.4633 24.7023 68.3073 24.0343 67.4353 22.6743L66.506 21.2209L70.454 18.6796Z" fill="white"/>
<path d="M73.6164 23.8292L75.0884 26.8225L74.2897 27.2145L73.3751 25.3532L72.5057 25.7812L73.3684 27.5385L72.5711 27.9305L71.7071 26.1732L70.7524 26.6412L71.7004 28.5705L70.9031 28.9625L69.3991 25.9025L73.6164 23.8292Z" fill="white"/>
<path d="M73.4719 35.8057C73.2785 35.4897 73.0599 35.1377 72.8625 34.5231C72.4772 33.3204 72.6332 31.7351 74.3252 31.1937C75.8825 30.6937 77.0105 31.5457 77.4879 33.0337C77.6359 33.4937 77.6759 33.9724 77.6865 34.4457L76.6879 34.6604C76.7745 34.2044 76.7572 33.7951 76.6239 33.3817C76.3505 32.5271 75.5559 32.1684 74.7225 32.4364C73.8452 32.7177 73.5145 33.5151 73.7972 34.3951C73.9239 34.7897 74.1545 35.1591 74.3879 35.4457L73.4719 35.8057Z" fill="white"/>
<path d="M76.16 40.2653C74.9013 40.5293 74.16 39.8267 73.9053 38.62C73.6493 37.412 74.0427 36.4707 75.3013 36.2067L78.156 35.608L78.416 36.8413L75.7667 37.3973C75.16 37.524 74.6813 37.7973 74.8147 38.428C74.948 39.0587 75.4973 39.116 76.104 38.9893L78.7533 38.432L79.0147 39.6667L76.16 40.2653Z" fill="white"/>
<path d="M76.4764 42.8265L79.1991 40.7732L79.3551 42.2185L77.5817 43.3439L79.5551 44.0559L79.7111 45.5025L76.6124 44.0812L74.8524 44.2692L74.7164 43.0132L76.4764 42.8265Z" fill="white"/>
<path d="M75.9224 48.9451C75.9317 49.7131 76.6624 50.0104 77.4371 50.0011C78.2517 49.9904 78.9344 49.6771 78.9251 48.9091C78.9171 48.1411 78.2264 47.8437 77.4117 47.8544C76.6371 47.8624 75.9131 48.1784 75.9224 48.9451ZM79.8557 48.8984C79.8731 50.4611 78.9611 51.2877 77.4517 51.3064C75.9571 51.3237 75.0117 50.5064 74.9931 48.9571C74.9744 47.4077 75.9011 46.5677 77.3957 46.5491C78.9037 46.5304 79.8371 47.3344 79.8557 48.8984Z" fill="white"/>
<path d="M9.11973 67.57L9.9184 69.3753L7.4624 71.5527L7.46773 71.5647L10.7504 71.2567L11.5184 72.994L7.21573 74.8967L6.71973 73.7753L10.0331 72.3327L10.0277 72.3207L6.23706 72.6847L5.77173 71.63L8.61173 69.1207L8.6064 69.1087L5.31306 70.5953L4.81706 69.4727L9.11973 67.57Z" fill="white"/>
<path d="M12.0676 73.906L13.7796 76.7393L13.0183 77.1993L11.9543 75.4353L11.1249 75.9367L12.1303 77.6007L11.3716 78.0607L10.3649 76.3967L9.4556 76.946L10.5583 78.7713L9.79826 79.2313L8.04893 76.334L12.0676 73.906Z" fill="white"/>
<path d="M14.3847 77.6924L15.3633 78.9511L13.822 82.1631L13.83 82.1724L16.334 80.1991L17.0367 81.1031L13.33 83.9844L12.3767 82.7577L13.9007 79.4924L13.8927 79.4817L11.3847 81.4844L10.678 80.5751L14.3847 77.6924Z" fill="white"/>
<path d="M16.0877 85.5727L16.4344 85.91C17.1051 86.5593 17.8184 86.578 18.4691 85.9073C19.1184 85.238 19.0651 84.5113 18.4091 83.8753L18.0624 83.538L16.0877 85.5727ZM17.8104 82.002L19.0357 83.1913C20.2077 84.3273 20.6717 85.49 19.4077 86.7913C18.1864 88.05 16.9171 87.67 15.7704 86.5553L14.5451 85.3687L17.8104 82.002Z" fill="white"/>
<path d="M21.3495 90.1404C21.9708 90.5804 22.6375 90.1617 23.0841 89.5297C23.5548 88.8657 23.7041 88.1297 23.0828 87.6911C22.4615 87.2524 21.8188 87.6377 21.3481 88.3017C20.9015 88.9337 20.7295 89.7017 21.3495 90.1404ZM23.6188 86.9337C24.8828 87.8271 25.0095 89.0457 24.1388 90.2764C23.2761 91.4964 22.0655 91.7844 20.8135 90.8991C19.5615 90.0124 19.4308 88.7764 20.2935 87.5564C21.1641 86.3257 22.3548 86.0391 23.6188 86.9337Z" fill="white"/>
<path d="M28.9341 91.2093L25.6341 92.6613L27.7061 93.696L27.2901 94.528L24.0021 92.884L24.4475 91.9933L27.6875 90.512L25.7421 89.5387L26.1581 88.708L29.3795 90.3187L28.9341 91.2093Z" fill="white"/>
<path d="M32.0428 92.2744L32.0295 92.2704L30.9121 93.8491L32.0375 94.1931L32.0428 92.2744ZM31.5948 91.1237L33.0601 91.5744L33.4121 96.5917L32.1001 96.1904L32.0601 95.1291L30.3761 94.6117L29.7281 95.4624L28.5135 95.0877L31.5948 91.1237Z" fill="white"/>
<path d="M44.83 93.2992L44.8167 93.3019L44.4793 95.2045L45.6433 95.0365L44.83 93.2992ZM43.934 92.4499L45.45 92.2325L47.9073 96.6192L46.5513 96.8139L46.062 95.8725L44.3193 96.1232L44.0953 97.1659L42.838 97.3472L43.934 92.4499Z" fill="white"/>
<path d="M49.7252 93.2093L50.0385 93.1053C50.4212 92.9773 50.9025 92.804 50.7359 92.2987C50.5985 91.8853 50.1572 91.9453 49.7039 92.096L49.3905 92.1987L49.7252 93.2093ZM47.9225 91.7493L50.0439 91.0467C50.8359 90.7853 51.5999 90.9293 51.8545 91.6947C52.0505 92.2907 51.9012 92.7787 51.3705 93.104L51.3745 93.116C51.7919 93.0907 51.9292 93.4213 52.3332 93.8907L53.1692 94.96L51.9305 95.3707L51.4079 94.6507C50.9119 93.964 50.6945 93.824 50.2532 93.9693L50.0039 94.052L50.5879 95.8147L49.3999 96.2093L47.9225 91.7493Z" fill="white"/>
<path d="M58.3937 92.1885C57.7871 92.7392 57.2711 93.0285 56.8911 93.2299C55.7857 93.8179 54.2124 93.9365 53.3791 92.3685C52.5497 90.8059 53.3311 89.6219 54.8511 88.8152C55.1244 88.6699 55.7164 88.3939 56.2017 88.3339L56.5924 89.2832C56.1417 89.2659 55.7017 89.4139 55.4417 89.5525C54.5444 90.0285 54.0057 90.7939 54.5204 91.7632C54.9524 92.5765 55.7897 92.7645 56.5977 92.3339C56.7471 92.2565 56.8764 92.1565 56.9524 92.0552L56.5164 91.2352L55.8697 91.5792L55.4524 90.7952L57.1697 89.8832L58.3937 92.1885Z" fill="white"/>
<path d="M57.1607 87.5361L59.8233 85.5641L60.3527 86.2788L58.6953 87.5054L59.2727 88.2854L60.8367 87.1254L61.366 87.8414L59.802 88.9988L60.4353 89.8534L62.1513 88.5828L62.6807 89.2974L59.958 91.3134L57.1607 87.5361Z" fill="white"/>
<path d="M60.6907 84.8656L61.8293 83.7456L65.1987 84.9083L65.2093 84.8989L62.9573 82.6376L63.7733 81.8349L67.068 85.1856L65.9587 86.2776L62.536 85.1376L62.5253 85.1469L64.8067 87.4096L63.9853 88.2176L60.6907 84.8656Z" fill="white"/>
<path d="M65.7323 80.9112L65.0109 81.8179L64.2843 81.2392L66.5056 78.4459L67.2323 79.0245L66.5123 79.9312L69.4629 82.2779L68.6829 83.2579L65.7323 80.9112Z" fill="white"/>
<path d="M67.0025 77.708L67.7025 76.6707L71.5932 79.2973L70.8932 80.3347L67.0025 77.708Z" fill="white"/>
<path d="M68.4003 75.6547L69.1669 74.256L72.7269 74.3973L72.7336 74.3853L69.9283 72.8693L70.4776 71.8667L74.5949 74.1253L73.8483 75.488L70.2443 75.384L70.2376 75.396L73.0723 76.904L72.5189 77.912L68.4003 75.6547Z" fill="white"/>
<path d="M72.6841 69.1416L72.6788 69.1536L74.1588 70.3989L74.5975 69.3056L72.6841 69.1416ZM71.4988 69.4936L72.0695 68.0682L77.1028 68.1349L76.5921 69.4096L75.5308 69.3616L74.8761 70.9989L75.6681 71.7149L75.1961 72.8949L71.4988 69.4936Z" fill="white"/>
<path d="M23.8039 31.7875C23.8039 31.7875 27.8612 32.4381 31.5892 29.7568C35.3265 27.0661 36.0759 23.1141 40.3999 23.4408C44.7372 23.7675 43.8025 23.8035 47.7732 29.2701C51.7465 34.7381 53.0545 34.7741 53.9012 35.0568C54.5452 35.2715 65.7292 35.1528 67.2639 35.1528L67.1239 34.5995C67.1239 34.5995 59.1799 12.6101 40.7265 12.6101C23.1719 12.6101 15.2319 31.7875 15.2319 31.7875C15.2319 31.7875 20.1639 31.7328 23.8039 31.7875Z" fill="#231F20"/>
<path d="M122.655 6.55119H117.147V29.1152C117.147 36.7512 114.834 41.9925 107.729 41.9925C100.623 41.9925 98.3101 36.7512 98.3101 29.1152V6.55119H92.8021V29.8579C92.8021 41.0245 98.2555 47.0072 107.729 47.0072C117.203 47.0072 122.655 41.0245 122.655 29.8579V6.55119ZM126.443 46.3232H131.951V13.6165H132.062L149.466 46.3232H156.517V6.55119H151.009V38.5739H150.898L133.933 6.55119H126.443V46.3232ZM189.125 7.57652C186.371 6.32318 183.45 5.86719 180.475 5.86719C168.745 5.86719 160.153 14.0165 160.153 26.2659C160.153 38.9152 168.247 47.0072 180.421 47.0072C182.679 47.0072 186.261 46.8365 189.178 45.5805L188.849 40.0552C186.921 41.2525 183.23 41.9925 180.475 41.9925C172.49 41.9925 165.99 35.7832 165.99 26.4392C165.99 17.4912 171.883 10.8819 180.753 10.8819C183.559 10.8819 186.261 11.6232 188.683 13.1059L189.125 7.57652ZM223.175 6.55119H217.666V29.1152C217.666 36.7512 215.353 41.9925 208.247 41.9925C201.143 41.9925 198.83 36.7512 198.83 29.1152V6.55119H193.322V29.8579C193.322 41.0245 198.774 47.0072 208.247 47.0072C217.721 47.0072 223.175 41.0245 223.175 29.8579V6.55119ZM241.251 46.3232H246.758V29.6845L261.739 6.55119H255.297L244.115 24.3859L232.658 6.55119H226.215L241.251 29.6845V46.3232ZM263.249 26.4392C263.249 18.3459 267.434 10.8259 275.917 10.8819C284.399 10.8259 288.585 18.3459 288.585 26.4392C288.585 34.3565 284.783 41.9925 275.917 41.9925C267.047 41.9925 263.249 34.3565 263.249 26.4392ZM257.41 26.4392C257.41 38.5179 264.183 47.0072 275.917 47.0072C287.647 47.0072 294.423 38.5179 294.423 26.4392C294.423 14.6419 287.594 5.86719 275.917 5.86719C264.239 5.86719 257.41 14.6419 257.41 26.4392Z" fill="#231F20"/>
<path d="M94.4849 54.6039V63.6465C94.4849 67.0705 96.0036 68.5212 98.0436 68.5212C100.31 68.5212 101.761 67.0239 101.761 63.6465V54.6039H103.756V63.5119C103.756 68.2025 101.285 70.1292 97.9756 70.1292C94.8476 70.1292 92.4903 68.3385 92.4903 63.6012V54.6039H94.4849Z" fill="#231F20"/>
<path d="M108.312 69.8799V54.6039H110.466L115.36 62.3332C116.494 64.1239 117.378 65.7332 118.103 67.2972L118.148 67.2732C117.967 65.2345 117.922 63.3745 117.922 60.9959V54.6039H119.78V69.8799H117.786L112.935 62.1292C111.87 60.4292 110.851 58.6839 110.08 57.0292L110.012 57.0519C110.126 58.9785 110.171 60.8145 110.171 63.3519V69.8799H108.312Z" fill="#231F20"/>
<path d="M126.332 69.8802H124.36V54.6042H126.332V69.8802Z" fill="#231F20"/>
<path d="M134.265 69.8799L129.278 54.6039H131.409L133.789 62.1292C134.446 64.1905 135.013 66.0492 135.421 67.8399H135.466C135.897 66.0732 136.531 64.1452 137.211 62.1505L139.794 54.6039H141.903L136.441 69.8799H134.265Z" fill="#231F20"/>
<path d="M152.601 62.7185H146.663V68.2252H153.281V69.8799H144.692V54.6039H152.941V56.2585H146.663V61.0852H152.601V62.7185Z" fill="#231F20"/>
<path d="M158.948 61.7667H160.966C163.074 61.7667 164.411 60.6107 164.411 58.8653C164.411 56.8933 162.983 56.032 160.898 56.0093C159.946 56.0093 159.266 56.1 158.948 56.1907V61.7667ZM156.976 54.808C157.975 54.604 159.402 54.4907 160.762 54.4907C162.87 54.4907 164.23 54.876 165.182 55.7373C165.952 56.4173 166.383 57.46 166.383 58.6373C166.383 60.656 165.114 61.9933 163.504 62.536V62.6053C164.683 63.0133 165.386 64.1 165.748 65.6867C166.247 67.8173 166.61 69.2907 166.926 69.88H164.887C164.638 69.4493 164.298 68.1347 163.867 66.232C163.414 64.124 162.598 63.3307 160.807 63.2613H158.948V69.88H156.976V54.808Z" fill="#231F20"/>
<path d="M170.033 67.4776C170.917 68.0216 172.209 68.4749 173.569 68.4749C175.586 68.4749 176.764 67.4096 176.764 65.8683C176.764 64.4403 175.949 63.6243 173.886 62.8323C171.393 61.9483 169.852 60.6563 169.852 58.5029C169.852 56.1216 171.824 54.3549 174.793 54.3549C176.357 54.3549 177.489 54.7176 178.17 55.1029L177.625 56.7123C177.126 56.4403 176.108 55.9869 174.725 55.9869C172.64 55.9869 171.846 57.2323 171.846 58.2763C171.846 59.7043 172.776 60.4056 174.884 61.2229C177.466 62.2203 178.782 63.4656 178.782 65.7096C178.782 68.0669 177.036 70.1069 173.433 70.1069C171.96 70.1069 170.35 69.6749 169.534 69.1323L170.033 67.4776Z" fill="#231F20"/>
<path d="M184.584 69.8802H182.612V54.6042H184.584V69.8802Z" fill="#231F20"/>
<path d="M191.135 68.3161C191.633 68.4068 192.359 68.4295 193.129 68.4295C197.345 68.4295 199.635 66.0721 199.635 61.9481C199.657 58.3441 197.617 56.0548 193.447 56.0548C192.427 56.0548 191.656 56.1455 191.135 56.2588V68.3161ZM189.163 54.8081C190.364 54.6268 191.792 54.4908 193.356 54.4908C196.189 54.4908 198.207 55.1481 199.544 56.3948C200.904 57.6415 201.696 59.4081 201.696 61.8801C201.696 64.3721 200.925 66.4121 199.497 67.8175C198.071 69.2455 195.713 70.0148 192.744 70.0148C191.339 70.0148 190.161 69.9481 189.163 69.8348V54.8081Z" fill="#231F20"/>
<path d="M211.421 63.5336L209.925 59.1362C209.585 58.1402 209.358 57.2322 209.132 56.3482H209.086C208.86 57.2562 208.61 58.1842 208.316 59.1149L206.82 63.5336H211.421ZM206.412 65.0749L204.825 69.8802H202.785L207.976 54.6042H210.356L215.569 69.8802H213.461L211.829 65.0749H206.412Z" fill="#231F20"/>
<path d="M219.785 68.3161C220.284 68.4068 221.009 68.4295 221.78 68.4295C225.996 68.4295 228.285 66.0721 228.285 61.9481C228.308 58.3441 226.268 56.0548 222.097 56.0548C221.077 56.0548 220.306 56.1455 219.785 56.2588V68.3161ZM217.813 54.8081C219.014 54.6268 220.442 54.4908 222.006 54.4908C224.84 54.4908 226.857 55.1481 228.194 56.3948C229.554 57.6415 230.346 59.4081 230.346 61.8801C230.346 64.3721 229.576 66.4121 228.148 67.8175C226.721 69.2455 224.364 70.0148 221.394 70.0148C219.989 70.0148 218.81 69.9481 217.813 69.8348V54.8081Z" fill="#231F20"/>
<path d="M92.5136 92.5465V77.2705H94.6669L99.5616 84.9999C100.695 86.7905 101.579 88.3999 102.304 89.9639L102.35 89.9399C102.168 87.9012 102.123 86.0412 102.123 83.6625V77.2705H103.982V92.5465H101.987L97.1376 84.7959C96.0709 83.0959 95.0523 81.3505 94.2816 79.6959L94.2136 79.7185C94.3269 81.6452 94.3723 83.4812 94.3723 86.0185V92.5465H92.5136Z" fill="#231F20"/>
<path d="M114.907 86.2003L113.411 81.8029C113.071 80.8069 112.845 79.8989 112.618 79.0149H112.573C112.346 79.9229 112.097 80.8509 111.802 81.7816L110.306 86.2003H114.907ZM109.898 87.7416L108.311 92.5469H106.271L111.462 77.2709H113.842L119.055 92.5469H116.947L115.315 87.7416H109.898Z" fill="#231F20"/>
<path d="M131.635 92.0479C130.909 92.4105 129.459 92.7732 127.601 92.7732C123.295 92.7732 120.053 90.0532 120.053 85.0452C120.053 80.2625 123.295 77.0212 128.031 77.0212C129.936 77.0212 131.136 77.4292 131.657 77.7012L131.181 79.3105C130.433 78.9479 129.368 78.6759 128.1 78.6759C124.519 78.6759 122.139 80.9639 122.139 84.9759C122.139 88.7159 124.292 91.1185 128.008 91.1185C129.211 91.1185 130.433 90.8692 131.227 90.4839L131.635 92.0479Z" fill="#231F20"/>
<path d="M136.078 92.5469H134.106V77.2709H136.078V92.5469Z" fill="#231F20"/>
<path d="M140.725 84.9997C140.725 88.2624 142.493 91.1877 145.598 91.1877C148.725 91.1877 150.493 88.3077 150.493 84.8411C150.493 81.8037 148.906 78.6317 145.62 78.6317C142.357 78.6317 140.725 81.6451 140.725 84.9997ZM152.578 84.7504C152.578 90.0077 149.382 92.7957 145.484 92.7957C141.45 92.7957 138.617 89.6677 138.617 85.0451C138.617 80.1944 141.632 77.0224 145.712 77.0224C149.881 77.0224 152.578 80.2171 152.578 84.7504Z" fill="#231F20"/>
<path d="M155.141 92.5465V77.2705H157.295L162.189 84.9999C163.323 86.7905 164.207 88.3999 164.932 89.9639L164.977 89.9399C164.796 87.9012 164.751 86.0412 164.751 83.6625V77.2705H166.609V92.5465H164.615L159.765 84.7959C158.699 83.0959 157.68 81.3505 156.909 79.6959L156.841 79.7185C156.955 81.6452 157 83.4812 157 86.0185V92.5465H155.141Z" fill="#231F20"/>
<path d="M177.535 86.2003L176.039 81.8029C175.699 80.8069 175.472 79.8989 175.246 79.0149H175.2C174.974 79.9229 174.724 80.8509 174.43 81.7816L172.934 86.2003H177.535ZM172.526 87.7416L170.939 92.5469H168.899L174.09 77.2709H176.47L181.683 92.5469H179.575L177.943 87.7416H172.526Z" fill="#231F20"/>
<path d="M183.928 77.2705H185.9V90.8919H192.426V92.5465H183.928V77.2705Z" fill="#231F20"/>
<path d="M201.403 90.9828C201.901 91.0735 202.627 91.0961 203.397 91.0961C207.613 91.0961 209.903 88.7388 209.903 84.6148C209.925 81.0108 207.885 78.7215 203.715 78.7215C202.695 78.7215 201.924 78.8121 201.403 78.9255V90.9828ZM199.431 77.4748C200.632 77.2935 202.06 77.1575 203.624 77.1575C206.457 77.1575 208.475 77.8148 209.812 79.0615C211.172 80.3081 211.964 82.0748 211.964 84.5468C211.964 87.0388 211.193 89.0788 209.765 90.4841C208.339 91.9121 205.981 92.6815 203.012 92.6815C201.607 92.6815 200.429 92.6148 199.431 92.5015V77.4748Z" fill="#231F20"/>
<path d="M222.437 85.3852H216.498V90.8919H223.117V92.5465H214.527V77.2705H222.777V78.9252H216.498V83.7519H222.437V85.3852Z" fill="#231F20"/>
<path d="M241.159 92.0479C240.433 92.4105 238.983 92.7732 237.125 92.7732C232.819 92.7732 229.577 90.0532 229.577 85.0452C229.577 80.2625 232.819 77.0212 237.555 77.0212C239.459 77.0212 240.66 77.4292 241.181 77.7012L240.705 79.3105C239.957 78.9479 238.892 78.6759 237.624 78.6759C234.043 78.6759 231.663 80.9639 231.663 84.9759C231.663 88.7159 233.816 91.1185 237.532 91.1185C238.733 91.1185 239.957 90.8692 240.751 90.4839L241.159 92.0479Z" fill="#231F20"/>
<path d="M245.602 77.2705V86.3132C245.602 89.7372 247.121 91.1879 249.161 91.1879C251.427 91.1879 252.878 89.6905 252.878 86.3132V77.2705H254.873V86.1785C254.873 90.8692 252.402 92.7959 249.093 92.7959C245.965 92.7959 243.607 91.0052 243.607 86.2679V77.2705H245.602Z" fill="#231F20"/>
<path d="M261.696 92.5465V86.0652L256.868 77.2705H259.112L261.265 81.4865C261.855 82.6412 262.308 83.5719 262.784 84.6359H262.829C263.26 83.6385 263.78 82.6412 264.371 81.4865L266.568 77.2705H268.812L263.691 86.0412V92.5465H261.696Z" fill="#231F20"/>
<path d="M270.944 84.9997C270.944 88.2624 272.712 91.1877 275.817 91.1877C278.944 91.1877 280.712 88.3077 280.712 84.8411C280.712 81.8037 279.125 78.6317 275.839 78.6317C272.576 78.6317 270.944 81.6451 270.944 84.9997ZM282.797 84.7504C282.797 90.0077 279.601 92.7957 275.703 92.7957C271.669 92.7957 268.836 89.6677 268.836 85.0451C268.836 80.1944 271.851 77.0224 275.931 77.0224C280.1 77.0224 282.797 80.2171 282.797 84.7504Z" fill="#231F20"/>
</svg>
